<?xml version="1.0" standalone="no"?>
<!DOCTYPE svg PUBLIC "-//W3C//DTD SVG 20010904//EN"
 "http://www.w3.org/TR/2001/REC-SVG-20010904/DTD/svg10.dtd">
<svg version="1.0" xmlns="http://www.w3.org/2000/svg"
 width="401.000000pt" height="375.000000pt" viewBox="0 0 401.000000 375.000000"
 preserveAspectRatio="xMidYMid meet">

<g transform="translate(0.000000,375.000000) scale(0.100000,-0.100000)"
fill="#0460D9" stroke="none">
<path d="M1136 3729 l-26 -20 0 -244 c0 -308 -10 -289 159 -294 l121 -3 0
-502 -1 -501 -620 -645 c-341 -355 -641 -674 -666 -709 -117 -161 -132 -359
-41 -543 61 -123 194 -221 333 -247 82 -15 3118 -15 3200 0 273 50 459 343
389 613 -37 144 18 82 -1016 1154 l-358 370 0 506 0 506 99 0 c106 0 156 12
171 40 6 11 10 120 10 255 l0 236 -25 24 -24 25 -839 0 c-834 0 -839 0 -866
-21z m1589 -264 l0 -130 -727 -3 -728 -2 0 128 c0 71 3 132 7 135 3 4 331 6
727 5 l721 -3 0 -130z m-285 -823 l0 -528 23 -31 c12 -16 157 -169 322 -339
440 -453 469 -483 464 -489 -11 -11 -151 -34 -244 -40 -177 -13 -363 17 -560
88 -119 43 -211 58 -388 64 -235 8 -371 -13 -582 -90 -108 -40 -232 -58 -395
-57 -128 0 -313 19 -327 34 -8 8 65 86 432 465 l319 331 164 0 c160 0 163 0
187 25 26 25 32 63 15 95 -15 29 -72 40 -202 40 l-118 0 0 125 0 125 142 0
c132 0 143 2 165 22 33 30 31 80 -3 107 -24 19 -40 21 -165 21 l-139 0 0 124
0 125 146 3 c139 3 147 4 165 27 24 30 24 72 0 102 -18 23 -26 24 -165 27
l-146 4 0 74 0 74 445 0 445 0 0 -528z m-192 -1448 c42 -8 129 -33 192 -54
174 -58 286 -75 480 -75 169 1 256 13 390 54 l60 19 200 -212 c244 -257 255
-275 255 -421 0 -90 -3 -105 -28 -152 -57 -110 -133 -164 -253 -183 -47 -7
-550 -10 -1594 -8 l-1525 3 -67 33 c-71 35 -133 95 -172 167 -18 34 -21 57
-21 145 0 157 4 163 304 477 l146 153 60 -19 c115 -36 253 -53 415 -53 183 1
288 17 450 71 135 45 189 58 290 71 100 12 322 4 418 -16z" fill="#0476D9" />
<path d="M2209 1130 c-69 -37 -119 -116 -119 -189 0 -32 5 -44 26 -57 24 -16
27 -16 52 3 15 11 28 30 30 42 2 11 10 21 17 21 28 0 26 -21 -4 -56 -37 -41
-39 -69 -8 -115 41 -61 106 -75 182 -40 53 24 112 91 121 136 28 153 -63 276
-205 275 -35 -1 -70 -8 -92 -20z m182 -26 c122 -62 128 -251 10 -325 -63 -40
-122 -40 -162 0 -37 38 -37 70 1 104 35 32 37 50 10 77 -33 33 -56 23 -85 -33
-27 -54 -60 -15 -43 51 14 54 72 119 123 137 44 16 103 11 146 -11z"/>
<path d="M2256 1084 c-12 -32 -6 -55 19 -66 21 -9 28 -8 45 7 37 33 19 75 -31
75 -15 0 -29 -7 -33 -16z m46 -36 c-15 -15 -26 -4 -18 18 5 13 9 15 18 6 9 -9
9 -15 0 -24z"/>
<path d="M2362 1038 c-32 -32 4 -87 48 -73 25 8 37 50 20 70 -15 18 -51 20
-68 3z m40 -40 c-15 -15 -26 -4 -18 18 5 13 9 15 18 6 9 -9 9 -15 0 -24z"/>
<path d="M2383 933 c-7 -2 -13 -17 -13 -32 0 -50 42 -68 75 -31 15 17 16 24 7
45 -11 24 -38 31 -69 18z m47 -32 c0 -14 -18 -23 -30 -16 -6 4 -8 11 -5 16 8
12 35 12 35 0z"/>
<path d="M2302 848 c-17 -17 -15 -53 3 -68 20 -17 62 -5 70 20 14 44 -41 80
-73 48z m48 -33 c0 -8 -7 -15 -15 -15 -8 0 -15 7 -15 15 0 8 7 15 15 15 8 0
15 -7 15 -15z"/>
<path d="M791 1041 c-22 -22 -27 -66 -12 -90 7 -10 -4 -41 -34 -100 -39 -78
-47 -87 -81 -98 -35 -10 -44 -9 -78 10 -27 15 -42 32 -48 52 -9 37 -33 55 -70
55 -41 0 -71 -34 -65 -73 7 -41 -63 -167 -92 -167 -34 0 -71 -39 -71 -74 0
-41 26 -66 68 -66 43 0 74 40 67 89 -5 30 1 46 35 99 22 35 44 61 49 57 5 -3
21 -1 35 5 21 8 36 5 71 -12 27 -13 45 -29 45 -39 0 -33 39 -69 75 -69 45 0
70 35 62 85 -4 27 3 54 33 119 33 71 45 87 76 102 50 25 64 65 37 103 -26 34
-74 40 -102 12z"/>
<path d="M1315 1016 c-38 -36 -46 -50 -44 -73 2 -19 -5 -40 -19 -57 -27 -35
-28 -56 -2 -89 11 -14 20 -37 20 -51 0 -14 9 -31 21 -39 11 -8 28 -30 37 -48
15 -29 23 -34 59 -37 33 -2 44 1 57 20 9 12 16 35 16 50 0 26 3 28 38 28 24 0
45 -7 55 -17 15 -18 17 -22 17 -43 0 -5 4 -10 9 -10 5 0 7 9 4 20 -4 13 0 20
9 20 23 0 29 -12 15 -28 -10 -13 -9 -14 3 -10 27 8 18 43 -12 46 -14 2 -32 10
-38 18 -8 8 -30 14 -56 14 -40 0 -44 2 -44 25 0 23 3 25 53 25 41 0 55 -4 65
-20 7 -11 19 -20 28 -20 9 0 29 -8 45 -17 27 -16 30 -16 46 -1 13 14 14 20 3
32 -14 18 -50 22 -50 6 0 -18 -46 -11 -65 10 -14 15 -31 20 -72 20 -46 0 -53
2 -53 20 0 19 7 20 95 20 57 0 95 -4 95 -10 0 -17 47 -11 54 6 7 19 -10 44
-29 44 -7 0 -18 -7 -25 -15 -10 -12 -31 -15 -99 -13 -81 3 -86 4 -89 26 -3 20
0 22 47 22 39 0 56 5 77 25 31 29 37 30 68 10 19 -13 25 -13 41 -1 24 18 13
46 -19 46 -14 0 -28 -4 -31 -10 -3 -5 -13 -10 -22 -10 -8 0 -29 -11 -45 -26
-24 -20 -40 -24 -72 -22 -34 2 -42 7 -44 26 -3 20 1 22 36 22 22 0 45 6 52 14
6 8 23 16 37 18 34 4 54 35 33 48 -26 17 -39 11 -54 -25 -23 -54 -96 -63 -106
-13 -15 79 -75 89 -145 24z m117 17 c16 -14 18 -34 18 -191 0 -149 -2 -178
-17 -194 -31 -34 -103 -12 -103 32 0 18 24 43 50 53 11 4 10 6 -4 6 -11 1 -28
-7 -38 -16 -23 -21 -51 -8 -56 26 -3 17 2 21 26 21 16 0 36 7 43 17 13 15 12
15 -9 4 -51 -27 -112 21 -93 72 11 29 47 43 87 33 17 -5 23 -3 19 4 -3 5 -16
10 -29 10 -42 0 -62 44 -31 70 12 10 20 7 44 -19 16 -17 35 -31 43 -31 7 0 -2
12 -19 26 -37 29 -40 40 -17 72 18 26 60 29 86 5z m181 -10 c9 -9 -13 -34 -24
-27 -14 8 -11 34 4 34 8 0 17 -3 20 -7z m77 -78 c0 -8 -7 -15 -15 -15 -8 0
-15 7 -15 15 0 8 7 15 15 15 8 0 15 -7 15 -15z m0 -111 c0 -8 -7 -14 -15 -14
-15 0 -21 21 -9 33 10 9 24 -2 24 -19z m0 -94 c0 -11 -7 -20 -15 -20 -8 0 -15
9 -15 20 0 11 7 20 15 20 8 0 15 -9 15 -20z"/>
<path d="M2915 990 c-4 -6 -16 -10 -27 -8 -14 2 -22 -3 -24 -16 -1 -10 -8 -22
-14 -26 -9 -5 -9 -13 -2 -25 5 -10 7 -26 4 -37 -3 -13 0 -17 11 -12 10 3 20
-2 27 -15 9 -19 13 -20 25 -7 8 8 24 12 35 9 15 -4 19 -2 14 10 -3 10 3 20 16
27 16 9 19 15 11 23 -6 6 -11 21 -11 34 0 14 -6 23 -15 23 -9 0 -18 7 -21 15
-7 17 -20 19 -29 5z m14 -63 c12 -15 5 -27 -16 -27 -7 0 -13 9 -13 20 0 23 13
26 29 7z"/>
<path d="M2990 860 c0 -13 -9 -22 -25 -26 -28 -7 -31 -14 -13 -32 10 -10 10
-17 0 -33 -8 -12 -12 -22 -10 -22 30 -15 44 -28 46 -45 3 -18 6 -20 23 -9 15
9 23 9 39 -1 26 -16 28 -16 32 11 2 14 11 23 26 25 25 4 28 12 10 30 -10 10
-10 17 1 34 12 19 11 23 -13 41 -14 10 -26 25 -26 33 0 12 -4 12 -20 2 -16
-10 -24 -10 -40 0 -27 16 -30 15 -30 -8z m70 -76 c0 -19 -28 -30 -42 -16 -8 8
-8 15 1 26 14 17 41 10 41 -10z"/>
<path d="M2797 839 c-14 -15 -27 -20 -55 -17 -32 3 -37 0 -35 -17 4 -34 -7
-65 -23 -65 -25 0 -28 -30 -4 -47 19 -13 21 -22 16 -55 -6 -39 -6 -40 19 -34
29 7 65 -8 65 -29 0 -27 23 -27 45 1 20 26 25 27 49 16 22 -10 28 -9 32 3 4 8
4 21 1 29 -7 18 20 56 39 56 20 0 17 19 -6 38 -20 17 -27 42 -19 71 2 9 -4 16
-16 18 -53 10 -63 14 -68 33 -7 26 -18 25 -40 -1z m41 -131 c2 -20 -2 -28 -19
-33 -29 -9 -53 15 -44 44 10 34 59 25 63 -11z"/>
<path d="M3539 652 l-74 -137 -53 -3 -52 -3 0 90 c0 86 -1 91 -25 107 -24 16
-30 15 -108 -8 -45 -13 -81 -28 -80 -34 1 -5 26 -12 54 -17 29 -4 54 -9 56
-11 2 -2 -8 -31 -23 -65 -26 -59 -26 -64 -15 -139 24 -151 20 -142 52 -142 20
0 31 -7 41 -26 7 -15 32 -42 54 -61 l42 -34 48 39 c43 34 51 47 67 104 11 37
38 95 63 132 l44 65 0 135 c0 74 -4 137 -8 140 -5 3 -42 -57 -83 -132z m39
-191 c-18 -28 -35 -51 -39 -51 -6 0 -49 87 -49 101 0 6 26 58 58 117 l57 105
3 -111 c3 -111 3 -111 -30 -161z m-237 215 c1 -6 0 -45 -1 -86 -2 -62 -7 -85
-36 -142 -28 -56 -32 -72 -24 -93 14 -36 12 -55 -4 -55 -18 0 -21 10 -36 117
-12 88 -12 95 10 150 41 102 59 133 75 127 8 -4 15 -11 16 -18z m-63 2 c-5
-15 -68 -24 -68 -9 0 10 21 18 53 20 11 1 17 -4 15 -11z m120 -235 l3 -53 -50
0 c-28 0 -51 2 -51 5 0 3 11 28 25 56 21 40 30 50 48 47 19 -3 22 -10 25 -55z
m95 2 l27 -55 -50 0 -50 0 0 48 c0 27 3 52 7 55 18 19 41 3 66 -48z m27 -77
c0 -2 -8 -28 -18 -59 -11 -37 -28 -65 -49 -83 -38 -32 -46 -32 -88 0 -25 19
-38 40 -50 79 -8 29 -15 56 -15 59 0 3 50 6 110 6 61 0 110 -1 110 -2z"/>
<path d="M1830 730 c-12 -25 -104 -129 -206 -236 -101 -106 -184 -196 -184
-201 1 -13 69 -83 82 -83 6 0 92 83 191 185 98 102 200 197 225 212 25 15 40
29 34 31 -6 2 -28 -8 -48 -22 -50 -34 -59 -22 -11 16 20 16 37 34 37 40 0 5
-20 -7 -45 -28 -51 -42 -63 -25 -15 21 17 16 30 33 30 39 0 5 -18 -7 -40 -29
-50 -49 -63 -39 -20 15 18 23 30 43 27 46 -2 3 -19 -13 -37 -36 -41 -51 -50
-45 -15 10 14 23 24 47 22 53 -2 7 -14 -8 -27 -33z m9 -114 l34 -35 -173 -175
c-95 -97 -179 -176 -185 -176 -7 0 -18 7 -26 16 -10 12 -10 20 -1 35 13 20 3
26 -15 8 -6 -6 -13 -7 -16 -2 -6 9 328 363 342 363 4 0 22 -15 40 -34z"/>
<path d="M1780 595 c-8 -9 -8 -15 -2 -15 12 0 26 19 19 26 -2 2 -10 -2 -17
-11z"/>
<path d="M1718 488 c-15 -15 -16 -18 -3 -18 9 0 18 7 22 15 8 23 0 24 -19 3z"/>
<path d="M1633 443 c-7 -3 -13 -12 -13 -21 0 -11 3 -13 8 -6 4 6 14 13 22 16
7 2 10 7 5 10 -6 3 -16 3 -22 1z"/>
<path d="M1540 355 c-7 -9 -11 -18 -8 -20 3 -3 11 1 18 10 7 9 11 18 8 20 -3
3 -11 -1 -18 -10z"/>
<path d="M2294 659 c-26 -9 -53 -51 -93 -149 -38 -91 -106 -184 -162 -222 -50
-33 -127 -58 -181 -58 -27 0 -38 -4 -38 -15 0 -13 60 -15 479 -15 396 0 480 2
484 14 4 10 -9 15 -53 19 -32 3 -83 16 -113 30 -95 43 -147 113 -216 294 -39
99 -61 120 -107 102z m61 -32 c8 -13 30 -62 49 -110 44 -112 76 -165 125 -210
54 -49 111 -76 179 -86 35 -5 -117 -9 -403 -9 -253 0 -437 4 -409 8 101 15
177 63 242 154 38 52 50 75 97 181 14 33 33 67 42 77 23 25 60 23 78 -5z"/>
<path d="M2290 576 c0 -7 -9 -16 -20 -19 -15 -4 -20 -14 -20 -36 0 -21 -5 -31
-15 -31 -10 0 -15 -11 -15 -35 0 -28 -4 -35 -20 -35 -16 0 -20 -7 -20 -35 0
-28 -4 -35 -20 -35 -13 0 -20 -7 -20 -20 0 -13 -7 -20 -20 -20 -15 0 -20 -7
-20 -25 0 -18 -5 -25 -20 -25 -13 0 -20 -7 -20 -20 0 -19 7 -20 130 -20 l130
0 0 185 c0 158 -2 185 -15 185 -8 0 -15 -6 -15 -14z"/>
<path d="M2330 390 c0 -144 2 -170 15 -170 13 0 15 26 15 170 0 144 -2 170
-15 170 -13 0 -15 -26 -15 -170z"/>
<path d="M2370 355 l0 -135 90 0 c83 0 90 1 90 20 0 13 -7 20 -20 20 -15 0
-20 7 -20 25 0 18 -5 25 -20 25 -13 0 -20 7 -20 20 0 11 -7 20 -15 20 -10 0
-15 11 -15 35 0 28 -4 35 -20 35 -16 0 -20 7 -20 35 0 24 -5 35 -15 35 -13 0
-15 -22 -15 -135z"/>
<path d="M2949 645 c-18 -28 -20 -75 -3 -75 8 0 14 -6 14 -14 0 -19 50 -16 70
4 19 19 19 71 0 90 -22 22 -66 19 -81 -5z m56 -34 c7 -12 -12 -24 -25 -16 -11
7 -4 25 10 25 5 0 11 -4 15 -9z"/>
<path d="M1033 605 c0 -22 2 -30 4 -17 2 12 2 30 0 40 -3 9 -5 -1 -4 -23z"/>
<path d="M947 605 c18 -25 33 -32 33 -17 0 10 -33 42 -44 42 -4 0 1 -11 11
-25z"/>
<path d="M1170 596 c-78 -34 -86 -50 -60 -117 43 -110 63 -119 160 -71 53 26
55 28 54 67 0 22 -12 63 -25 90 -29 60 -49 65 -129 31z m87 6 c13 -8 63 -122
63 -142 0 -17 -133 -73 -148 -63 -15 9 -62 117 -62 140 0 8 28 27 63 43 72 33
68 32 84 22z"/>
<path d="M1220 550 c0 -5 5 -10 10 -10 6 0 10 5 10 10 0 6 -4 10 -10 10 -5 0
-10 -4 -10 -10z"/>
<path d="M1155 520 c-3 -5 1 -10 10 -10 9 0 13 5 10 10 -3 6 -8 10 -10 10 -2
0 -7 -4 -10 -10z"/>
<path d="M1200 500 c0 -5 5 -10 10 -10 6 0 10 5 10 10 0 6 -4 10 -10 10 -5 0
-10 -4 -10 -10z"/>
<path d="M1250 480 c0 -5 5 -10 10 -10 6 0 10 5 10 10 0 6 -4 10 -10 10 -5 0
-10 -4 -10 -10z"/>
<path d="M1180 450 c0 -5 7 -10 16 -10 8 0 12 5 9 10 -3 6 -10 10 -16 10 -5 0
-9 -4 -9 -10z"/>
<path d="M938 523 c12 -2 30 -2 40 0 9 3 -1 5 -23 4 -22 0 -30 -2 -17 -4z"/>
<path d="M933 464 c-15 -7 -66 -138 -61 -161 4 -24 94 -66 143 -67 l39 -1 30
73 c36 87 33 95 -45 134 -52 26 -81 32 -106 22z m101 -39 c66 -29 69 -42 28
-125 -31 -63 -40 -65 -119 -27 -42 20 -48 26 -47 52 1 17 11 51 23 78 24 55
35 58 115 22z"/>
<path d="M960 410 c0 -5 5 -10 10 -10 6 0 10 5 10 10 0 6 -4 10 -10 10 -5 0
-10 -4 -10 -10z"/>
<path d="M1030 380 c0 -5 7 -10 16 -10 8 0 12 5 9 10 -3 6 -10 10 -16 10 -5 0
-9 -4 -9 -10z"/>
<path d="M946 371 c-4 -5 -2 -12 3 -15 5 -4 12 -2 15 3 4 5 2 12 -3 15 -5 4
-12 2 -15 -3z"/>
<path d="M1016 341 c-4 -5 -2 -12 3 -15 5 -4 12 -2 15 3 4 5 2 12 -3 15 -5 4
-12 2 -15 -3z"/>
<path d="M925 320 c-3 -5 1 -10 10 -10 9 0 13 5 10 10 -3 6 -8 10 -10 10 -2 0
-7 -4 -10 -10z"/>
<path d="M995 291 c-6 -11 9 -23 19 -14 9 9 7 23 -3 23 -6 0 -12 -4 -16 -9z"/>
<path d="M1205 320 c3 -5 19 -10 35 -10 16 0 32 5 35 10 4 6 -10 10 -35 10
-25 0 -39 -4 -35 -10z"/>
<path d="M1150 245 c0 -19 5 -35 10 -35 6 0 10 16 10 35 0 19 -4 35 -10 35 -5
0 -10 -16 -10 -35z"/>
<path d="M1227 245 c18 -25 33 -32 33 -17 0 10 -33 42 -44 42 -4 0 1 -11 11
-25z"/>
</g>
</svg>
